<svg width="85" height="85" viewBox="0 0 85 85" fill="none" xmlns="http://www.w3.org/2000/svg">
<path d="M63.75 43.875V58.875C63.75 59.9063 62.9063 60.75 61.875 60.75H24.375C23.3437 60.75 22.5 59.9063 22.5 58.875V43.875C22.5 32.4937 31.7437 23.25 43.125 23.25C54.5063 23.25 63.75 32.4937 63.75 43.875Z" fill="#FF4C0D"/>
<path d="M71.25 68.625C71.25 71.7187 68.7187 74.25 65.625 74.25H20.625C17.5313 74.25 15 71.7187 15 68.625C15 65.5313 17.5313 63 20.625 63H65.625C68.7187 63 71.25 65.5313 71.25 68.625Z" fill="#FF4C0D"/>
<path d="M43.125 21.375C42.0887 21.375 41.25 20.5363 41.25 19.5V13.875C41.25 12.8387 42.0887 12 43.125 12C44.1613 12 45 12.8387 45 13.875V19.5C45 20.5363 44.1613 21.375 43.125 21.375Z" fill="#FF4C0D"/>
<path d="M26.25 25.125C25.7702 25.125 25.2906 24.9418 24.9244 24.5756L19.2994 18.9506C18.567 18.2182 18.567 17.0317 19.2994 16.2992C20.0318 15.5666 21.2183 15.5668 21.9508 16.2992L27.5758 21.9242C28.3082 22.6565 28.3082 23.843 27.5758 24.5756C27.2095 24.9418 26.7298 25.125 26.25 25.125Z" fill="#FF4C0D"/>
<path d="M60 25.125C59.5202 25.125 59.0406 24.9418 58.6744 24.5756C57.942 23.8432 57.942 22.6567 58.6744 21.9242L64.2994 16.2992C65.0318 15.5668 66.2183 15.5668 66.9508 16.2992C67.6834 17.0315 67.6832 18.218 66.9508 18.9506L61.3258 24.5756C60.9595 24.9418 60.4798 25.125 60 25.125Z" fill="#FF4C0D"/>
</svg>
