<svg width="13" height="17" viewBox="0 0 13 17" fill="none" xmlns="http://www.w3.org/2000/svg">
<path fill-rule="evenodd" clip-rule="evenodd" d="M12.1678 10.6728C12.032 13.9145 9.36216 16.5011 6.08715 16.5011C2.7253 16.5011 4.27301e-06 13.6842 4.27301e-06 10.414C4.27301e-06 9.97687 -0.00783134 9.1033 0.647573 7.62943C1.03981 6.74738 1.28582 6.19325 1.42466 5.68673C1.50094 5.40834 1.6493 4.96605 2.07222 5.68673C2.3216 6.11166 2.33125 6.72284 2.33125 6.72284C2.33125 6.72284 3.25909 6.01083 3.88542 4.65062C4.8036 2.65656 4.07101 1.46458 3.82066 0.635689C3.73401 0.348946 3.67962 -0.166389 4.27396 0.0528775C4.87956 0.276353 6.48061 1.3971 7.31753 2.5784C8.51197 4.26434 8.93645 5.881 8.93645 5.881C8.93645 5.881 9.3189 5.40633 9.45451 4.90964C9.60766 4.34878 9.60992 3.7933 10.102 4.39165C10.57 4.96067 11.265 6.03 11.6562 7.04662C12.3666 8.89277 12.1678 10.6728 12.1678 10.6728Z" fill="url(#paint0_linear_11_221)"/>
<path fill-rule="evenodd" clip-rule="evenodd" d="M6.08716 16.5011C3.76245 16.5011 1.87796 14.6166 1.87796 12.2919C1.87796 10.8892 2.44322 10.0376 3.61966 8.88273C4.37291 8.14327 5.07792 7.23506 5.37755 6.61663C5.43654 6.49489 5.57079 5.86047 6.08839 6.60329C6.35991 6.99287 6.78556 7.6857 7.05851 8.277C7.52903 9.29646 7.64132 10.2845 7.64132 10.2845C7.64132 10.2845 8.10246 10.0127 8.4184 9.31311C8.52027 9.08762 8.72619 8.234 9.30188 9.08749C9.72429 9.71382 10.3046 10.8399 10.2964 12.2919C10.2964 14.6166 8.4118 16.5011 6.08716 16.5011Z" fill="#FC9502"/>
<path fill-rule="evenodd" clip-rule="evenodd" d="M6.15191 11.9034C6.75091 11.9034 6.75091 13.0126 7.5118 14.4937C8.01846 15.4798 7.26061 16.5011 6.15191 16.5011C5.04321 16.5011 4.46823 15.6024 4.46823 14.4937C4.46823 13.385 5.55291 11.9034 6.15191 11.9034Z" fill="#FCE202"/>
<defs>
<linearGradient id="paint0_linear_11_221" x1="6.09628" y1="16.5133" x2="6.09628" y2="0.0124691" gradientUnits="userSpaceOnUse">
<stop stop-color="#FF4C0D"/>
<stop offset="1" stop-color="#FC9502"/>
</linearGradient>
</defs>
</svg>
