<svg width="20" height="20" viewBox="0 0 20 20" fill="none" xmlns="http://www.w3.org/2000/svg">
<path d="M18.4138 9.59877C18.2733 9.31029 17.9949 9.11163 17.6758 9.07809L15.4147 8.84044L18.4001 3.38801C18.5493 3.11523 18.5525 2.78647 18.4081 2.51125C18.2633 2.236 17.9914 2.05096 17.6823 2.01847L14.6784 1.70275C14.2693 1.65975 13.8805 1.8926 13.723 2.27239L10.2136 10.7388C10.1014 11.0097 10.1236 11.3145 10.2737 11.5666C10.4235 11.8187 10.6836 11.982 10.9753 12.0126L13.3969 12.2671L12.4465 17.2407C12.38 17.5887 12.5704 17.9364 12.9002 18.0667C13.2301 18.1964 13.6052 18.0736 13.7939 17.7737L18.3644 10.4996C18.5353 10.2287 18.5536 9.88717 18.4138 9.59877Z" fill="#D11621"/>
<path d="M9.18515 12.6707L4.78851 12.6707" stroke="#D11621" stroke-width="1.09916" stroke-linecap="round"/>
<path d="M9.18515 12.6707L4.78851 12.6707" stroke="#D11621" stroke-width="1.09916" stroke-linecap="round"/>
<path d="M9.18515 12.6707L4.78851 12.6707" stroke="#D11621" stroke-width="1.09916" stroke-linecap="round"/>
<path d="M7.8112 9.92281L0.666666 9.92281" stroke="#D11621" stroke-width="0.82437" stroke-linecap="round"/>
<path d="M9.18515 7.17489L5.88767 7.17489" stroke="#D11621" stroke-width="0.54958" stroke-linecap="round"/>
</svg>
